<?xml version="1.0" encoding="UTF-8" standalone="no"?>
<svg width="100px" height="100px" viewBox="0 0 100 100" version="1.1" xmlns="http://www.w3.org/2000/svg" xmlns:xlink="http://www.w3.org/1999/xlink" xmlns:sketch="http://www.bohemiancoding.com/sketch/ns">
    <!-- Generator: Sketch 3.0.4 (8053) - http://www.bohemiancoding.com/sketch -->
    <title>icon_community</title>
    <desc>Created with Sketch.</desc>
    <defs></defs>
    <g id="Page-1" stroke="none" stroke-width="1" fill="none" fill-rule="evenodd" sketch:type="MSPage">
        <g id="Desktop" sketch:type="MSArtboardGroup" transform="translate(-954.000000, -261.000000)" stroke-linecap="round" stroke="#5EB9CC" stroke-linejoin="round">
            <g id="icon_community" sketch:type="MSLayerGroup" transform="translate(964.000000, 277.000000)">
                <path d="M0.000598559525,26 L0.000598559525,35.8636364 C0.000598559525,38.7931364 -0.114146994,42.9090909 2.8338221,42.9090909 L2.8338221,57 L14.1667163,57 L14.1667163,42.9090909 C17.1104355,42.9090909 16.9971066,38.7903182 16.9999398,35.8636364 L16.9999398,26 L0.000598559525,26 L0.000598559525,26 Z" id="Stroke-4386" stroke-width="3.5" sketch:type="MSShapeGroup"></path>
                <path d="M65,26 L65,35.8636364 C65,39.3426818 66.4166667,41.5 67.8333333,41.5 L67.8333333,57 L79.1666667,57 L79.1666667,41.5 C80.6938333,41.5 81.9971667,38.7903182 82,35.8636364 L82,26 L65,26 L65,26 Z" id="Stroke-4387" stroke-width="3.5" sketch:type="MSShapeGroup"></path>
                <path d="M28,26 L53,26 L53,44.28125 C53,48.1807813 51.2944444,51.3125 47.4444444,51.3125 L47.4444444,71 L33.5555556,71 L33.5555556,51.3125 C29.7013889,51.3125 28,48.1807813 28,44.28125 L28,26 L28,26 Z" id="Stroke-4388" stroke-width="4.2" sketch:type="MSShapeGroup"></path>
                <path d="M79,14.5 C79,17.537375 76.537375,20 73.5,20 C70.462625,20 68,17.537375 68,14.5 C68,11.462625 70.462625,9 73.5,9 C76.537375,9 79,11.462625 79,14.5 L79,14.5 Z" id="Stroke-4389" stroke-width="3.5" sketch:type="MSShapeGroup"></path>
                <path d="M14,14.5 C14,17.537375 11.537375,20 8.5,20 C5.462625,20 3,17.537375 3,14.5 C3,11.462625 5.462625,9 8.5,9 C11.537375,9 14,11.462625 14,14.5 L14,14.5 Z" id="Stroke-4390" stroke-width="3.5" sketch:type="MSShapeGroup"></path>
                <path d="M51,10 C51,15.5228571 46.5228571,20 41,20 C35.4771429,20 31,15.5228571 31,10 C31,4.47714286 35.4771429,0 41,0 C46.5228571,0 51,4.47714286 51,10 L51,10 Z" id="Stroke-4391" stroke-width="4.2" sketch:type="MSShapeGroup"></path>
            </g>
        </g>
        <g id="icon_community" sketch:type="MSArtboardGroup"></g>
    </g>
</svg>