<svg xmlns="http://www.w3.org/2000/svg" xmlns:xlink="http://www.w3.org/1999/xlink" width="117" height="30" viewBox="0 0 117 30">
  <defs>
    <polygon id="logo_curity-a" points="0 22 100.935 22 100.935 0 0 0"/>
  </defs>
  <g fill="none" fill-rule="evenodd" transform="translate(9 4)">
    <path fill="#626C87" d="M28.9443091,13.9508727 L28.6188326,14.2916614 C26.7807864,16.2103838 24.4705435,17.3115653 22.2790617,17.3115653 C18.8023067,17.3115653 16.2792647,14.6627169 16.2792647,11.0139823 C16.2792647,7.36748217 18.7414052,4.71964938 22.1344126,4.71964938 C24.0996335,4.71964938 26.42638,5.67633598 28.0619175,7.15392215 L28.3894651,7.45266242 L31.6420303,3.9053587 L31.2751977,3.57851843 C28.7769434,1.33952375 25.228867,0 21.7851839,0 C17.9913011,0 14.778021,1.80110861 12.8686534,4.64956865 L6.87500476,4.64956865 L6.52474046,7.72987064 L11.4479861,7.72987064 C11.2898753,8.28638612 11.1803691,8.86551702 11.1059412,9.46089852 L3.73919436,9.46089852 L3.38893007,12.5401171 L11.1049704,12.5401171 C11.1782981,13.1354986 11.2867687,13.7157129 11.441773,14.2689783 L11.4365954,14.2689783 L10.9995416,14.2689783 L0.351299818,14.2689783 L0,17.3492803 L10.9995416,17.3492803 L11.4365954,17.3492803 L12.8427654,17.3492803 C14.7531685,20.2192724 18.0078047,22 21.9308684,22 C26.8572206,22 30.2915841,19.3693658 31.9003275,17.8023336 L32.2423077,17.4690608 L28.9443091,13.9508727 Z"/>
    <polygon fill="#626C87" points="2.913 9.477 .739 9.477 .388 12.523 2.564 12.523"/>
    <path fill="#626C87" d="M49.2051282 13.5601807C48.0193118 14.7152545 46.2163768 15.7723077 43.956195 15.7723077 40.5246777 15.7723077 38.2634615 13.2132188 38.2634615 10.0431415 38.2634615 6.93989954 40.5401283 4.33230769 43.8767441 4.33230769 45.7736108 4.33230769 47.6395117 5.10808436 48.872779 6.21472288L47.4496441 7.76526152C46.5012107 6.90756424 45.1729773 6.37957881 44.0666118 6.37957881 41.9798128 6.37957881 40.6350944 8.04653806 40.6350944 10.0603915 40.6350944 12.0904126 42.0107786 13.7412042 44.1460627 13.7412042 45.5527127 13.7412042 46.8644611 12.9653599 47.7654437 12.0247273L49.2051282 13.5601807zM60.5352564 4.67076923L60.5352564 11.5647287C60.5352564 14.2542185 58.5363215 15.7723077 55.7929575 15.7723077 53.1283161 15.7723077 51.0826923 14.2542185 51.0826923 11.5647287L51.0826923 4.67076923 53.3664297 4.67076923 53.3664297 11.5647287C53.3664297 12.9848745 54.4606368 13.7428038 55.7929575 13.7428038 57.2050384 13.7428038 58.2515838 12.9848745 58.2515838 11.5647287L58.2515838 4.67076923 60.5352564 4.67076923zM65.8442308 6.63384615L65.8442308 9.47692308 69.5734668 9.47692308C70.3704012 9.47692308 71.0237179 8.87789652 71.0237179 8.04778863 71.0237179 7.68209154 70.8956741 7.34895838 70.6565286 7.09934695 70.2902516 6.68371394 69.8285118 6.63384615 69.4144057 6.63384615L65.8442308 6.63384615zM63.5782051 15.4338462L63.5782051 4.67076923 69.3166843 4.67076923C70.791382 4.67076923 71.7578538 5.11730015 72.4243168 5.84130028 72.9635288 6.43521139 73.2801976 7.20986925 73.2801976 8.06733559 73.2801976 9.45089924 72.456405 10.5224789 71.1876555 11.0990988L73.6134615 15.4338462 71.0137956 15.4338462 68.9202163 11.4788966 65.8446072 11.4788966 65.8446072 15.4338462 63.5782051 15.4338462z"/>
    <mask id="logo_curity-b" fill="#fff">
      <use xlink:href="#logo_curity-a"/>
    </mask>
    <polygon fill="#626C87" points="75.944 15.434 78.21 15.434 78.21 4.671 75.944 4.671" mask="url(#logo_curity-b)"/>
    <polygon fill="#626C87" points="80.217 4.671 89.994 4.671 89.994 6.714 86.247 6.714 86.247 15.434 83.978 15.434 83.978 6.714 80.217 6.714" mask="url(#logo_curity-b)"/>
    <polygon fill="#626C87" points="100.935 4.671 96.838 10.521 96.838 15.434 94.56 15.434 94.56 10.521 90.447 4.671 93.262 4.671 95.777 8.413 98.278 4.671" mask="url(#logo_curity-b)"/>
  </g>
</svg>
